<?xml version="1.0" standalone="no"?>
<!DOCTYPE svg PUBLIC "-//W3C//DTD SVG 20010904//EN"
 "http://www.w3.org/TR/2001/REC-SVG-20010904/DTD/svg10.dtd">
<svg version="1.0" xmlns="http://www.w3.org/2000/svg"
 width="300.000000pt" height="409.000000pt" viewBox="0 0 300.000000 409.000000"
 preserveAspectRatio="xMidYMid meet">
<metadata>
Created by potrace 1.10, written by Peter Selinger 2001-2011
</metadata>
<g transform="translate(0.000000,409.000000) scale(0.050000,-0.050000)"
fill="#ffffff" stroke="none">
<path d="M2243 8139 c-158 -28 -236 -72 -395 -224 l-143 -136 -258 -22 -257
-23 -506 173 c-278 95 -522 173 -542 173 -157 0 87 -388 370 -590 136 -97 270
-259 335 -404 25 -54 58 -92 96 -107 33 -14 113 -91 179 -172 139 -169 256
-265 416 -339 61 -28 126 -58 142 -67 63 -32 44 -86 -75 -208 -436 -449 -482
-587 -426 -1262 l25 -295 -57 -60 c-31 -33 -179 -157 -329 -277 -363 -288
-754 -707 -788 -844 -32 -124 154 -432 323 -537 185 -114 463 67 442 289 -8
80 0 119 38 190 26 50 53 123 59 164 12 70 20 77 165 140 539 233 759 429 764
683 5 204 34 108 45 -144 12 -295 58 -543 126 -686 l35 -72 -190 -206 c-105
-113 -195 -219 -202 -236 -6 -16 -128 -165 -270 -331 -383 -443 -378 -422
-217 -875 104 -294 217 -673 240 -811 10 -58 2 -76 -55 -130 -130 -123 -291
-253 -313 -253 -34 0 -145 -60 -195 -106 -87 -80 -31 -234 85 -234 28 0 69
-19 91 -41 30 -30 63 -40 116 -37 57 5 85 -6 127 -48 78 -78 286 -50 345 45 7
11 75 53 152 93 225 118 324 271 279 429 -28 96 -25 225 13 557 27 239 28 317
8 458 l-23 169 156 165 c191 202 166 201 280 10 118 -196 168 -209 227 -58 85
218 96 238 127 226 17 -6 36 -31 43 -55 85 -285 203 -364 235 -158 24 146 36
135 115 -108 112 -339 190 -342 181 -7 -3 131 3 200 17 200 11 0 21 -7 21 -16
0 -8 81 -141 181 -294 125 -193 193 -321 223 -417 58 -192 177 -356 385 -532
276 -233 308 -351 151 -561 -151 -202 -107 -260 210 -278 383 -22 452 -17 555
44 159 93 159 94 -89 534 -127 224 -160 302 -195 460 -79 352 -157 566 -256
707 -112 160 -234 506 -346 983 -52 220 -191 698 -228 780 -15 33 -33 92 -41
130 -7 39 -45 202 -83 364 l-70 293 62 192 c33 105 61 205 61 221 0 43 3 42
191 -84 153 -101 184 -133 296 -305 70 -105 209 -279 310 -386 223 -236 225
-253 48 -343 -234 -119 -296 -350 -125 -472 78 -55 108 -51 189 30 53 54 86
70 141 70 102 0 104 -36 8 -188 -135 -215 -131 -397 8 -454 57 -24 64 -22 114
38 63 76 80 80 80 18 0 -90 93 -125 163 -61 34 30 39 29 74 -14 53 -66 146
-25 216 95 37 63 59 82 74 67 11 -11 40 -21 64 -21 279 0 220 671 -72 820
-117 61 -214 204 -228 337 -46 442 -247 834 -575 1123 -184 162 -261 249 -395
444 -204 299 -346 415 -734 599 -244 116 -380 214 -470 341 l-40 56 42 53 c22
29 41 79 41 112 0 49 6 57 35 45 210 -87 290 -61 544 179 119 113 226 196 270
211 57 18 83 45 124 126 90 178 243 317 493 447 415 217 651 530 337 448 -116
-30 -596 -97 -793 -111 -288 -19 -645 -79 -778 -129 -43 -16 -71 -7 -186 63
-345 210 -793 300 -1163 235z m723 -155 c137 -50 371 -163 386 -187 5 -8 -24
-30 -66 -47 -149 -63 -210 -165 -126 -210 33 -18 48 -13 85 27 110 118 635
255 1085 284 110 6 311 30 446 52 135 22 256 36 268 32 28 -9 -142 -119 -274
-177 -232 -102 -429 -280 -532 -481 -25 -50 -68 -91 -123 -119 -46 -24 -142
-102 -213 -172 -246 -246 -324 -275 -472 -175 -111 76 -136 61 -162 -94 -24
-146 -66 -201 -488 -643 -201 -210 -241 -234 -394 -234 -228 1 -328 81 -437
350 -39 99 -103 238 -140 309 -83 156 -86 177 -16 122 124 -97 278 -26 275
127 -2 122 -38 157 -207 200 -176 46 -210 35 -195 -58 18 -109 -20 -82 -44 31
-43 198 1 399 132 613 33 53 65 121 73 151 29 115 240 297 387 334 140 35 621
12 752 -35z m-1696 -352 c88 -1 208 6 268 14 l107 16 -50 -86 c-102 -174 -266
-181 -578 -25 -314 158 -359 126 -157 -115 67 -79 144 -180 173 -225 51 -81
187 -192 359 -292 81 -47 253 -321 221 -352 -23 -24 -264 173 -370 302 -68 83
-153 170 -189 194 -37 24 -96 97 -133 164 -66 120 -170 231 -469 501 -222 201
-205 204 253 46 363 -126 421 -140 565 -142z m47 -327 c51 6 110 17 130 26 33
13 36 9 22 -33 -8 -26 -21 -100 -27 -164 l-12 -117 -121 79 c-101 65 -269 250
-269 296 0 6 42 -13 92 -42 76 -45 110 -53 185 -45z m560 -487 c47 -16 63 -34
63 -70 0 -66 -65 -63 -119 5 -69 87 -55 104 56 65z m1435 -578 c89 -93 173
-158 247 -192 532 -246 660 -345 890 -689 83 -123 178 -236 248 -294 426 -354
602 -659 666 -1151 25 -191 117 -329 297 -446 73 -47 99 -81 137 -177 53 -135
84 -367 46 -343 -13 8 -23 36 -23 63 0 227 -143 278 -163 57 -12 -143 -71
-309 -118 -339 -20 -12 -22 2 -9 63 41 189 25 398 -30 398 -46 0 -53 -14 -93
-170 -24 -93 -55 -197 -70 -230 l-25 -60 -7 65 c-4 35 7 119 24 186 34 136 29
159 -35 158 -35 0 -62 -36 -134 -183 -93 -188 -125 -224 -149 -162 -9 23 22
102 88 229 55 107 101 212 101 232 0 142 -282 189 -406 68 l-69 -66 -21 59
c-30 88 7 141 156 225 261 147 252 250 -46 557 -102 106 -230 263 -285 350
-128 204 -118 195 -539 471 -198 130 -377 256 -398 279 -94 104 -449 -118
-428 -268 12 -80 76 -57 189 68 132 146 115 144 271 27 70 -52 147 -108 171
-125 l45 -30 -109 -342 c-60 -188 -141 -424 -180 -525 -93 -239 -97 -463 -8
-463 41 0 75 65 64 122 -12 58 104 458 133 458 19 0 143 -579 128 -603 -20
-33 -244 -130 -389 -168 -267 -70 -682 -32 -1123 103 l-174 54 -41 102 c-95
236 -140 501 -141 832 -1 281 -111 771 -205 905 -83 121 -317 161 -332 57 -8
-57 25 -81 112 -82 90 0 131 -49 190 -225 l51 -151 -48 -282 c-84 -500 -126
-549 -688 -804 l-250 -113 -33 -127 c-55 -219 -68 -233 -121 -143 -28 48 -29
68 -7 155 27 105 13 170 -37 170 -84 0 -136 -266 -73 -368 45 -73 42 -152 -6
-152 -34 0 -141 115 -181 195 -35 69 -104 89 -125 35 -59 -153 315 -463 398
-330 33 53 55 51 55 -7 0 -83 -183 -194 -255 -155 -111 60 -285 300 -285 392
0 80 352 473 591 660 242 189 412 336 506 439 l88 95 -14 123 c-88 774 -54
919 301 1313 162 180 145 177 202 31 89 -230 249 -337 506 -338 231 -1 346 75
650 435 98 116 181 212 183 212 2 0 64 -63 139 -140z m-822 -2986 c551 -144
1018 -117 1368 78 48 27 90 46 92 43 2 -3 32 -95 68 -205 35 -110 69 -210 74
-222 6 -14 -25 -27 -81 -33 -170 -19 -272 -132 -392 -435 -37 -93 -70 -173
-73 -178 -31 -48 -129 57 -171 183 -54 163 -109 217 -160 160 -30 -32 -27 -48
39 -200 57 -132 68 -179 57 -237 -17 -91 -34 -72 -81 87 -61 211 -133 222
-171 26 -23 -117 -59 -165 -59 -80 0 65 -33 111 -112 158 -114 67 -146 51
-206 -104 -65 -169 -51 -174 -211 76 -213 332 -417 550 -624 665 -26 15 -5 46
123 179 l155 161 83 -35 c45 -19 172 -58 282 -87z m-580 -426 c191 -152 254
-214 341 -340 l74 -108 -160 -160 -161 -161 -41 71 c-99 167 -173 65 -84 -116
85 -172 99 -378 51 -787 -29 -248 -31 -326 -12 -434 33 -189 -26 -279 -244
-374 -24 -10 -88 -50 -141 -89 -147 -105 -252 -84 -143 30 98 103 27 183 -90
100 l-60 -43 0 42 c0 66 -52 70 -175 15 -62 -28 -121 -47 -130 -41 -31 19 29
67 118 93 126 37 424 271 478 376 46 89 -31 419 -222 948 -111 307 -125 398
-75 473 55 80 511 617 524 617 7 0 75 -50 152 -112z m2230 -77 c0 -151 263
-885 368 -1029 99 -134 272 -639 272 -792 0 -49 40 -126 222 -431 141 -236
154 -267 118 -289 -12 -7 -40 32 -63 89 -70 167 -176 125 -110 -44 35 -87 21
-130 -36 -108 -23 9 -31 40 -31 120 0 114 -33 168 -90 146 -22 -9 -30 -43 -30
-134 0 -117 -2 -121 -45 -108 -60 19 -58 14 -33 86 29 82 11 128 -47 119 -35
-5 -50 -26 -67 -96 -18 -76 -29 -91 -75 -96 -52 -7 -72 22 -33 46 12 7 48 59
80 116 124 216 64 378 -231 634 -219 190 -291 291 -351 493 -33 110 -89 218
-211 403 -127 195 -160 259 -140 274 13 11 69 126 122 255 116 282 198 375
331 375 57 0 80 -8 80 -29z"/>
<path d="M4300 7729 c-635 -124 -860 -252 -860 -491 0 -66 -11 -102 -40 -128
-96 -87 -32 -192 125 -205 122 -11 152 8 220 133 26 49 74 83 200 141 136 63
179 95 243 180 43 56 130 150 195 209 172 155 146 205 -83 161z m-188 -276
c-89 -101 -131 -133 -203 -153 -119 -34 -229 -115 -279 -207 -27 -51 -53 -73
-85 -73 -56 0 -57 21 -5 65 30 26 40 59 40 136 0 144 60 200 292 269 98 30
214 65 258 79 111 35 110 30 -18 -116z"/>
<path d="M2741 6925 c-321 -61 -353 -90 -262 -238 110 -181 432 -119 534 104
85 185 58 198 -272 134z m159 -105 c0 -71 -249 -131 -298 -73 -19 23 3 33 123
58 186 39 175 38 175 15z"/>
</g>
</svg>
