 <svg  version="1.0" xmlns="http://www.w3.org/2000/svg"  width="300.000000pt" height="474.000000pt" viewBox="0 0 300.000000 474.000000"  preserveAspectRatio="xMidYMid meet">  <g transform="translate(0.000000,474.000000) scale(0.050000,-0.050000)" fill="#ffffff" stroke="none"> <path d="M3521 9327 c-154 -101 -320 -274 -441 -459 l-104 -158 10 -200 c6 -110 25 -290 43 -400 18 -110 37 -229 43 -264 7 -48 17 -61 41 -52 37 14 24 236 -26 433 -41 164 -29 255 20 147 35 -77 84 -108 209 -129 l66 -11 -14 108 c-17 132 -24 137 -193 138 -162 0 -187 43 -50 84 108 33 968 31 1001 -2 35 -35 15 -39 -306 -56 l-310 -16 -15 -109 c-24 -165 -24 -165 189 -107 149 40 201 64 261 122 90 86 98 58 37 -121 -21 -62 -45 -164 -52 -228 -7 -65 -22 -147 -34 -183 -27 -89 -22 -91 133 -52 136 34 210 19 158 -33 -38 -38 -648 -239 -723 -239 -69 0 -177 58 -359 192 -58 42 -60 4 -5 -67 53 -67 52 -71 -38 -121 -97 -55 -141 -159 -213 -501 -65 -314 -165 -561 -245 -611 -18 -11 -384 42 -400 57 -4 4 3 26 15 49 26 49 103 55 260 18 77 -17 108 -17 125 0 35 35 15 44 -177 77 -202 35 -202 35 -166 78 27 33 64 33 322 -2 l92 -13 32 87 c69 193 67 203 -26 134 -50 -36 -55 -48 -35 -80 44 -71 -146 -96 -332 -44 -110 31 157 438 369 564 l73 44 -11 -201 c-8 -143 -4 -200 12 -200 13 0 23 2 23 6 0 178 58 394 126 469 64 71 32 71 -148 1 -288 -111 -474 -337 -549 -666 -18 -77 -42 -180 -53 -230 -45 -193 -49 -177 52 -221 50 -22 92 -43 92 -46 0 -22 -170 -514 -192 -557 -15 -30 -28 -72 -28 -93 0 -22 -16 -68 -35 -102 -43 -78 -18 -104 218 -223 249 -125 214 -171 -43 -58 -75 33 -146 60 -158 60 -11 0 -70 41 -131 90 -61 50 -114 90 -118 90 -4 0 -9 -83 -10 -185 -2 -171 -29 -377 -82 -625 -17 -78 -43 -121 -117 -196 l-96 -95 -167 40 c-114 27 -184 56 -220 90 -68 65 -142 65 -219 -1 -124 -103 -17 -307 135 -259 44 14 382 -116 407 -156 25 -40 -4 -110 -285 -693 -713 -1483 -958 -2086 -1032 -2536 -48 -289 -14 -294 243 -36 298 298 314 328 1357 2457 160 328 305 601 322 607 61 24 168 -11 175 -56 9 -66 41 -63 137 13 116 91 129 72 99 -140 l-25 -173 53 -49 c39 -36 52 -68 52 -125 0 -42 6 -117 12 -168 l13 -91 -100 -43 c-55 -24 -125 -69 -155 -100 l-55 -58 107 -270 c93 -234 114 -271 153 -272 l44 0 -52 145 c-29 80 -73 187 -99 239 -66 131 -61 158 39 221 128 81 277 55 587 -102 69 -35 138 -63 154 -63 51 0 56 -38 6 -51 -32 -8 -117 18 -262 80 -232 99 -232 99 -232 75 0 -9 54 -42 120 -74 163 -78 157 -96 -40 -122 l-100 -13 0 -93 c0 -50 -6 -126 -13 -167 -29 -174 137 -68 251 160 105 210 159 171 62 -45 -73 -162 -73 -170 -10 -170 100 0 46 -32 -125 -75 -184 -46 -328 -41 -394 14 -64 53 -93 12 -59 -83 99 -281 170 -1019 107 -1122 -21 -35 -39 -87 -39 -116 0 -81 -77 -175 -228 -280 -266 -184 -451 -400 -384 -449 70 -51 595 -76 907 -44 117 12 145 10 145 -12 0 -30 354 -51 1036 -63 280 -5 353 -12 381 -37 219 -199 764 -183 872 25 24 46 47 57 175 78 379 64 355 174 -52 237 l-212 33 -59 118 c-47 94 -55 129 -40 168 15 39 8 71 -31 149 -92 181 -140 1011 -72 1245 l28 96 -73 75 c-86 88 -92 140 -33 326 54 172 53 176 -50 277 -87 85 -90 92 -90 209 0 253 23 396 65 407 31 8 36 21 27 72 -7 34 -18 119 -25 188 l-13 127 78 -32 c43 -18 92 -52 108 -76 17 -24 55 -72 85 -107 30 -35 55 -73 55 -84 0 -106 319 -23 442 114 l101 112 -14 150 c-15 160 -16 240 -6 320 7 49 4 50 -106 43 -99 -6 -319 25 -362 50 -8 5 -3 26 10 48 20 31 15 101 -21 351 -35 243 -40 319 -21 341 26 33 7 60 -51 70 -97 17 -19 133 151 228 108 60 385 87 430 43 24 -24 -34 -53 -106 -54 -65 0 -295 -66 -346 -99 -60 -38 -1 -42 179 -11 215 37 218 36 169 -72 -36 -81 -36 -83 2 -112 38 -28 38 -30 -16 -76 -62 -54 -69 -86 -25 -103 40 -15 38 -38 -12 -106 -40 -53 -41 -61 -11 -103 25 -36 27 -51 8 -74 -53 -64 -33 -240 29 -266 76 -31 79 -27 98 176 21 218 102 556 171 709 63 141 56 165 -61 194 -98 25 -103 32 -73 111 16 41 8 70 -48 162 -37 62 -101 195 -141 296 l-74 184 75 64 c78 68 78 64 29 236 -12 44 -36 138 -52 210 -56 247 -174 446 -322 543 -42 27 -128 84 -192 126 -114 76 -118 77 -215 55 -113 -27 -171 -11 -267 70 -62 52 -62 52 -69 8 -7 -51 -257 -244 -395 -305 -227 -100 -487 -115 -624 -35 -84 48 -88 48 -80 -7 18 -133 386 -156 646 -42 219 97 236 105 306 150 95 60 95 38 -1 -79 -274 -335 -1057 -401 -1163 -99 -24 66 -5 90 41 53 30 -25 33 -24 21 7 -14 37 109 195 151 195 12 0 50 -34 86 -75 l65 -75 157 1 c213 2 530 143 765 341 4 4 -7 46 -25 93 -43 113 -42 199 9 516 60 369 15 561 -184 787 -64 73 -452 356 -482 351 -3 -1 -55 -33 -115 -72z m318 -166 c123 -84 261 -229 261 -276 0 -17 -30 -2 -80 37 -89 72 -111 69 -81 -11 31 -80 26 -111 -19 -111 -55 0 -50 -23 19 -89 80 -77 63 -91 -74 -60 -63 14 -167 31 -230 39 -115 13 -175 48 -175 101 0 58 -36 27 -49 -41 -10 -55 -24 -72 -67 -82 -30 -7 -102 -24 -160 -38 -139 -35 -148 -12 -61 154 74 140 327 407 436 460 81 39 115 29 280 -83z m701 -1692 c0 -7 -50 -57 -110 -113 -246 -224 -348 -687 -213 -961 l47 -95 -64 -115 c-36 -63 -83 -135 -106 -160 -22 -25 -35 -51 -28 -58 7 -7 -7 -40 -31 -75 -25 -34 -43 -71 -40 -83 3 -12 -27 -52 -65 -89 -80 -78 -87 -100 -30 -100 62 0 48 -28 -40 -78 -117 -65 -104 -69 160 -54 221 12 327 -8 195 -37 -612 -137 -1034 -160 -1163 -65 -125 93 -253 1033 -182 1339 16 70 38 188 48 263 25 174 23 173 140 67 179 -161 501 -183 837 -59 179 67 192 64 165 -38 -26 -101 -33 -227 -11 -238 10 -5 30 60 45 145 42 253 205 522 356 587 67 29 90 34 90 17z m43 -157 c-110 -115 -147 -172 -111 -172 7 0 66 49 131 110 146 135 194 149 309 93 97 -47 114 -83 39 -83 -78 0 -77 -34 3 -47 71 -11 186 -99 186 -142 0 -11 -48 -39 -105 -61 -129 -49 -135 -81 -14 -73 148 9 183 -76 51 -124 -41 -14 4 -37 120 -60 168 -34 158 -65 -27 -79 -166 -13 -503 -118 -663 -206 -104 -57 -118 -50 -184 98 -108 239 -39 556 164 759 181 181 276 169 101 -13z m772 -705 c97 -26 43 -60 -130 -83 -96 -13 -299 -65 -451 -115 -220 -73 -283 -87 -305 -68 -40 33 -36 79 7 79 20 0 143 37 275 81 330 112 482 139 604 106z m-146 -285 c6 -10 -21 -37 -59 -59 -99 -59 -88 -82 35 -77 185 7 147 -61 -65 -117 -93 -25 -194 -55 -222 -66 -83 -32 -134 42 -68 97 48 40 35 60 -30 47 -95 -19 -73 29 35 77 224 99 352 133 374 98z m-2603 -82 c103 -21 113 -36 38 -65 -81 -30 -80 -35 16 -91 161 -91 89 -122 -144 -61 -207 54 -214 62 -156 177 40 79 47 84 107 70 34 -8 97 -21 139 -30z m2184 -365 c50 -98 90 -193 90 -210 0 -17 23 -61 50 -97 59 -76 61 -103 18 -165 -36 -51 -34 -78 28 -363 101 -469 98 -620 -14 -728 -71 -68 -67 -73 -162 218 -78 237 -132 349 -310 642 -165 270 -164 281 20 663 153 314 144 313 280 40z m560 107 c0 -28 -282 -121 -390 -128 -107 -8 -61 72 70 120 137 51 320 55 320 8z m-2914 -13 c199 -83 234 -189 62 -189 -148 0 -149 -29 -2 -84 212 -79 103 -123 -165 -66 -191 41 -193 44 -105 220 79 161 92 168 210 119z m2992 -101 c72 -28 24 -67 -153 -126 -200 -67 -335 -81 -335 -34 0 87 366 207 488 160z m-2549 -258 l45 -200 -79 -140 c-105 -185 -266 -549 -376 -854 -112 -307 -114 -308 -241 -261 -130 48 -141 108 -39 221 78 86 87 132 41 198 -48 68 78 297 342 621 48 59 51 70 28 124 -22 54 -19 66 26 120 28 33 70 121 95 195 86 262 93 261 158 -24z m-564 -114 c132 -48 151 -82 53 -92 -74 -7 -236 74 -245 124 -8 42 -11 43 192 -32z m-358 -217 c15 -41 15 -94 2 -163 -43 -227 1 -236 48 -10 16 75 33 141 39 146 17 18 168 -31 215 -69 l44 -36 -74 -97 c-54 -70 -71 -109 -62 -143 12 -50 -10 -61 -147 -72 -87 -6 -110 -55 -26 -55 68 0 110 -40 92 -87 -29 -78 -302 -26 -280 52 31 106 72 373 72 467 0 142 39 176 77 67z m2254 39 c17 -27 -21 -55 -96 -71 -96 -21 -96 -67 0 -96 36 -11 45 -6 45 25 0 26 17 43 49 49 55 10 118 -21 76 -38 -14 -6 -20 -19 -14 -29 7 -11 28 -9 52 4 28 14 48 15 61 2 36 -36 -1 -59 -132 -82 -160 -28 -555 -140 -581 -164 -45 -43 59 -104 121 -72 174 89 428 138 428 82 0 -18 27 -63 60 -101 33 -38 60 -82 60 -98 0 -37 10 -36 69 2 64 42 82 8 39 -74 -32 -63 -32 -66 13 -102 41 -33 44 -43 21 -80 -23 -36 -21 -46 18 -75 33 -25 41 -45 31 -78 -15 -47 -23 -46 131 -14 29 6 58 6 65 -2 28 -27 -35 -63 -187 -107 -252 -73 -173 -112 97 -49 69 17 135 25 145 19 65 -40 -40 -83 -442 -178 -498 -117 -541 -124 -573 -80 -39 53 -34 66 28 73 70 8 68 27 -28 416 -114 465 -237 676 -319 550 -44 -68 -110 -81 -197 -39 -84 40 -114 115 -64 165 31 30 33 28 33 -28 0 -108 92 -144 182 -71 86 70 -63 216 -170 167 -38 -17 -51 -16 -59 5 -12 31 -109 53 -125 28 -6 -9 8 -17 30 -17 54 0 71 -33 23 -46 -28 -7 -35 -21 -27 -52 13 -50 4 -51 -130 -11 -120 35 -118 30 -59 154 51 109 31 107 312 32 136 -36 184 -60 263 -131 72 -64 99 -79 107 -57 6 16 50 49 97 73 97 50 77 71 -38 39 -97 -27 -166 -27 -166 0 0 69 713 218 751 157z m-891 -259 c0 -52 -66 -46 -76 6 -5 24 6 35 35 35 28 0 41 -13 41 -41z m-326 -109 l65 -28 -57 -127 c-56 -124 -191 -532 -212 -640 -10 -49 -19 -55 -92 -55 -98 0 -87 -30 23 -63 104 -31 107 -27 177 224 92 325 203 619 234 619 39 0 40 6 -73 -487 -123 -538 -115 -513 -150 -513 -45 0 -386 141 -433 179 l-43 35 53 128 c29 70 86 218 126 328 72 198 153 375 194 426 22 28 75 21 188 -26z m553 -175 c29 -196 100 -723 114 -835 19 -155 85 -375 129 -430 31 -39 32 -39 76 19 136 182 182 217 300 226 146 13 211 -5 233 -63 13 -33 44 -53 109 -70 51 -12 92 -31 92 -42 0 -47 -558 -154 -705 -134 -88 12 -95 -9 -37 -122 20 -41 58 -139 83 -218 l46 -143 -54 -70 c-67 -88 -67 -132 0 -238 29 -46 74 -131 99 -188 l46 -103 -51 -55 c-57 -62 -59 -48 53 -319 188 -452 292 -903 250 -1086 -11 -47 -6 -75 16 -100 24 -28 26 -50 9 -124 l-22 -90 -603 0 -604 0 -25 144 c-14 79 -21 158 -14 175 6 17 2 80 -10 141 -37 181 82 960 175 1157 35 71 34 74 -11 122 -72 76 -41 259 73 438 36 56 36 56 -23 104 l-60 47 46 156 c76 260 204 566 265 635 80 92 81 91 -141 91 -237 0 -218 -27 -199 280 39 622 67 774 133 714 49 -44 71 -43 115 6 52 58 87 49 97 -25z m-1607 -196 c197 -43 259 -119 99 -119 -53 0 -80 -9 -78 -25 9 -64 -5 -97 -52 -128 -77 -50 -99 -9 -39 73 65 88 64 92 -25 121 -110 35 -157 142 -50 112 19 -5 85 -20 145 -34z m-900 -49 c31 -37 -23 -110 -81 -110 -54 0 -62 55 -15 100 52 48 63 49 96 10z m731 -59 c38 -28 38 -29 -4 -72 -80 -81 -189 -19 -114 64 40 45 67 46 118 8z m-429 -72 c213 -53 539 -163 735 -249 84 -37 177 -73 207 -80 75 -19 105 -58 68 -89 -23 -19 -39 -17 -76 6 -53 34 -1056 373 -1104 373 -17 0 -32 4 -32 8 0 14 24 72 29 72 3 0 81 -19 173 -41z m3898 -70 c177 -36 189 -49 222 -233 30 -169 10 -196 -144 -196 -78 0 -99 -8 -126 -50 -43 -66 -132 -70 -132 -6 0 24 23 68 52 98 42 44 49 66 39 115 -23 102 -111 137 -111 43 0 -35 -86 -120 -123 -120 -25 0 -21 115 6 166 20 39 154 214 163 214 2 0 72 -14 154 -31z m-3532 -241 c39 -15 42 -65 5 -80 -35 -13 -144 -243 -125 -263 16 -15 24 -6 134 151 101 145 205 137 118 -10 -45 -76 -241 -488 -540 -1136 -473 -1022 -942 -1842 -1068 -1867 -112 -21 256 940 798 2086 541 1144 554 1166 678 1119z m1102 -312 c71 -36 130 -75 130 -87 0 -13 61 -55 135 -94 182 -95 178 -126 -15 -121 -148 4 -486 84 -526 124 -20 20 27 165 70 217 31 37 62 31 206 -39z m-31 -374 c55 -21 113 -51 130 -68 17 -17 41 -34 54 -38 35 -12 1 -56 -42 -56 -27 0 -39 -21 -49 -82 -12 -77 -17 -82 -68 -72 -127 26 -164 51 -164 111 0 31 -6 99 -13 150 -15 109 -2 114 152 55z m1501 -99 c0 -21 5 -65 12 -99 12 -58 -124 -164 -209 -164 -23 0 -107 257 -92 281 24 40 289 23 289 -18z m234 -244 c185 -63 235 -128 82 -109 -155 19 -152 27 -120 -284 32 -324 19 -300 146 -268 172 45 150 -31 -27 -90 -152 -50 -515 -20 -457 38 34 34 26 87 -28 194 -58 115 -62 151 -18 168 62 24 84 11 126 -78 41 -88 82 -119 82 -62 0 15 -22 76 -50 135 -27 59 -50 123 -50 142 0 50 -22 44 -126 -37 -142 -111 -190 -50 -59 77 196 190 322 234 499 174z m-1694 -810 c83 7 179 18 215 24 75 13 88 -19 23 -54 -225 -121 -578 -108 -578 21 0 31 11 33 95 16 52 -10 163 -13 245 -7z m1502 -29 c115 -16 176 -16 246 2 158 39 140 -24 -27 -96 -144 -62 -572 45 -460 115 16 10 43 14 59 10 17 -5 99 -19 182 -31z m-1576 -180 c91 -18 109 -33 78 -64 -51 -51 -27 -77 56 -64 96 16 96 13 21 -96 -71 -103 -131 -567 -77 -598 113 -66 109 -81 -20 -70 -233 21 -214 -10 -217 338 -2 167 -14 360 -26 429 -27 147 -17 174 56 154 29 -8 87 -21 129 -29z m1738 -66 c115 -51 115 -51 93 -113 -14 -42 -15 -70 -1 -86 11 -14 35 -128 54 -255 56 -387 65 -416 137 -453 72 -37 133 -86 133 -109 0 -8 -74 -13 -165 -11 -91 1 -208 -4 -260 -13 -101 -18 -130 12 -65 66 53 44 -33 524 -147 823 -16 42 -14 56 8 65 42 16 35 52 -10 52 -47 0 -69 31 -52 74 16 42 126 26 275 -40z m-1675 -910 c266 -91 222 -142 -71 -83 -103 21 -195 38 -203 38 -23 1 -18 50 9 77 35 35 88 29 265 -32z m-154 -175 c96 -40 140 -82 189 -176 54 -107 35 -112 -120 -29 -74 40 -172 84 -219 97 -100 30 -104 42 -30 97 67 49 86 51 180 11z m2140 -69 c97 -59 82 -82 -42 -68 -84 10 -126 4 -200 -29 -116 -51 -126 -16 -22 75 84 74 168 81 264 22z m-2253 -141 c146 -74 235 -239 130 -239 -27 0 -53 11 -59 25 -5 14 -11 5 -11 -19 -2 -48 -24 -53 -325 -77 -164 -13 -337 4 -337 33 0 23 130 141 278 254 124 94 176 98 324 23z m2352 -49 c47 -41 51 -52 26 -69 -25 -16 -19 -30 35 -86 84 -86 84 -118 2 -101 -77 15 -64 -19 24 -65 79 -40 75 -58 -28 -118 -130 -77 -354 -67 -488 20 l-49 33 76 78 c49 50 65 78 46 78 -17 0 -52 -22 -78 -50 -60 -63 -80 -63 -80 1 0 243 344 430 514 279z"/> <path d="M3243 8831 c-107 -112 -135 -169 -65 -132 55 30 206 216 185 229 -10 6 -64 -38 -120 -97z"/> <path d="M4360 6835 c1 -100 66 -255 107 -255 46 0 173 59 173 80 0 26 -27 25 -90 -4 -43 -19 -56 -18 -71 5 -31 49 -21 79 31 99 76 29 63 64 -18 49 -64 -12 -69 -9 -82 49 -19 90 -50 76 -50 -23z"/> <path d="M4010 4066 c-72 -17 -81 -46 -16 -46 74 0 126 17 126 42 0 19 -42 20 -110 4z"/> <path d="M1472 3535 c-101 -154 -201 -455 -117 -350 70 87 200 395 167 395 -12 0 -34 -20 -50 -45z"/> <path d="M961 2435 c-94 -202 -111 -255 -82 -255 23 0 201 348 201 394 0 69 -50 11 -119 -139z"/> <path d="M3423 8094 c-25 -31 5 -350 36 -381 37 -37 61 14 60 123 -2 225 -40 325 -96 258z"/> <path d="M3200 7141 c0 -18 78 -52 165 -72 35 -9 55 -5 55 9 0 12 -18 22 -41 22 -22 0 -71 13 -110 29 -38 16 -69 22 -69 12z"/> </g> </svg> 